<svg width="144" height="37" viewBox="0 0 144 37" fill="none" xmlns="http://www.w3.org/2000/svg">
<path d="M3.104 29V17.66H0.44V13.196H3.104V7.724C3.104 5.66 3.692 3.98 4.868 2.684C6.068 1.364 7.796 0.704 10.052 0.704C10.724 0.704 11.468 0.812 12.284 1.028C13.124 1.22 13.856 1.544 14.48 2L12.356 5.636C12.116 5.324 11.828 5.12 11.492 5.024C11.18 4.904 10.88 4.844 10.592 4.844C9.872 4.844 9.284 5.084 8.828 5.564C8.372 6.044 8.144 6.812 8.144 7.868V13.196H12.176V17.66H8.144V29H3.104ZM14.192 0.595999H19.232V29H14.192V0.595999ZM29.4844 29.756C28.0684 29.756 26.8804 29.324 25.9204 28.46C24.9604 27.572 24.4564 26.432 24.4084 25.04V13.268H29.4484V23.168C29.4964 23.864 29.6764 24.428 29.9884 24.86C30.3004 25.268 30.8284 25.472 31.5724 25.472C32.3164 25.472 32.9524 25.22 33.4804 24.716C34.0324 24.212 34.4524 23.528 34.7404 22.664C35.0524 21.776 35.2084 20.78 35.2084 19.676V13.268H40.2484V29H35.6764L35.2804 26.12L35.3524 26.444C34.9924 27.092 34.5364 27.668 33.9844 28.172C33.4324 28.676 32.7724 29.06 32.0044 29.324C31.2604 29.612 30.4204 29.756 29.4844 29.756ZM53.1718 29.432C51.2518 29.432 49.6198 29.072 48.2758 28.352C46.9558 27.632 45.9478 26.636 45.2518 25.364C44.5558 24.092 44.2078 22.628 44.2078 20.972C44.2078 19.388 44.6158 17.96 45.4318 16.688C46.2478 15.416 47.3398 14.408 48.7078 13.664C50.0758 12.896 51.5998 12.512 53.2798 12.512C55.5358 12.512 57.3838 13.172 58.8238 14.492C60.2878 15.788 61.2358 17.672 61.6678 20.144L49.4278 24.032L48.3118 21.296L57.1678 18.308L56.1238 18.776C55.9318 18.152 55.5838 17.612 55.0798 17.156C54.5998 16.676 53.8678 16.436 52.8838 16.436C52.1398 16.436 51.4798 16.616 50.9038 16.976C50.3518 17.312 49.9198 17.804 49.6078 18.452C49.3198 19.076 49.1758 19.82 49.1758 20.684C49.1758 21.668 49.3558 22.496 49.7158 23.168C50.0758 23.816 50.5678 24.308 51.1918 24.644C51.8158 24.98 52.5118 25.148 53.2798 25.148C53.8318 25.148 54.3598 25.052 54.8638 24.86C55.3918 24.668 55.9078 24.416 56.4118 24.104L58.6438 27.848C57.8038 28.328 56.8918 28.712 55.9078 29C54.9478 29.288 54.0358 29.432 53.1718 29.432ZM69.9023 13.268L70.2983 16.076L70.2263 15.824C70.7783 14.84 71.5583 14.048 72.5663 13.448C73.5743 12.824 74.8103 12.512 76.2743 12.512C77.7623 12.512 78.9983 12.956 79.9823 13.844C80.9903 14.708 81.5063 15.836 81.5303 17.228V29H76.4903V19.1C76.4663 18.404 76.2743 17.852 75.9143 17.444C75.5783 17.012 75.0023 16.796 74.1863 16.796C73.4183 16.796 72.7463 17.048 72.1703 17.552C71.5943 18.056 71.1503 18.74 70.8383 19.604C70.5263 20.468 70.3703 21.464 70.3703 22.592V29H65.3303V13.268H69.9023ZM88.1813 6.356H93.2213V13.196H97.0373V17.12H93.2213V29H88.1813V17.12H85.7333V13.196H88.1813V6.356ZM100.873 13.268H105.913V29H100.873V13.268ZM100.765 7.688C100.765 6.944 101.053 6.332 101.629 5.852C102.229 5.372 102.865 5.132 103.537 5.132C104.209 5.132 104.821 5.372 105.373 5.852C105.949 6.332 106.237 6.944 106.237 7.688C106.237 8.432 105.949 9.044 105.373 9.524C104.821 9.98 104.209 10.208 103.537 10.208C102.865 10.208 102.229 9.98 101.629 9.524C101.053 9.044 100.765 8.432 100.765 7.688ZM112.616 29V17.66H109.952V13.196H112.616V7.724C112.616 5.66 113.204 3.98 114.38 2.684C115.58 1.364 117.308 0.704 119.564 0.704C120.236 0.704 120.98 0.812 121.796 1.028C122.636 1.22 123.368 1.544 123.992 2L121.868 5.636C121.628 5.324 121.34 5.12 121.004 5.024C120.692 4.904 120.392 4.844 120.104 4.844C119.384 4.844 118.796 5.084 118.34 5.564C117.884 6.044 117.656 6.812 117.656 7.868V13.196H122.408V17.66H117.656V29H112.616ZM128.008 36.56L138.484 13.268H143.02L132.868 36.56H128.008ZM132.22 29.072L124.516 13.268H130.168L136.108 26.552L132.22 29.072Z" fill="black"/>
</svg>
